<?xml version="1.0" standalone="no"?>
<!DOCTYPE svg PUBLIC "-//W3C//DTD SVG 20010904//EN"
 "http://www.w3.org/TR/2001/REC-SVG-20010904/DTD/svg10.dtd">
<svg version="1.0" xmlns="http://www.w3.org/2000/svg"
 width="1181.000000pt" height="1181.000000pt" viewBox="0 0 1181.000000 1181.000000"
 preserveAspectRatio="xMidYMid meet">
<metadata>
Created by potrace 1.14, written by Peter Selinger 2001-2017
</metadata>
<g transform="translate(0.000000,1181.000000) scale(0.100000,-0.100000)"
fill="#000000" stroke="none">
<path d="M4480 8744 c-60 -8 -223 -38 -240 -44 -3 -1 -9 -3 -15 -5 -5 -1 -12
-3 -15 -4 -6 -3 -39 -11 -60 -15 -8 -1 -28 -8 -44 -14 -16 -7 -37 -14 -48 -16
-11 -1 -24 -9 -29 -17 -7 -12 -9 -12 -9 1 -1 11 -4 10 -15 -4 -8 -11 -15 -14
-15 -8 0 7 -5 12 -11 12 -5 0 -8 -4 -5 -9 3 -5 -6 -12 -22 -16 -15 -3 -36 -14
-47 -23 -19 -16 -19 -16 -6 1 12 15 12 17 -3 11 -9 -3 -16 -10 -16 -16 0 -5
-4 -7 -9 -3 -5 3 -12 1 -16 -5 -3 -5 -15 -10 -26 -10 -11 0 -22 -7 -25 -15 -4
-8 -10 -13 -14 -10 -9 6 -70 -26 -70 -37 0 -4 -7 -5 -15 -2 -8 4 -17 -1 -21
-9 -3 -9 -12 -13 -20 -10 -7 3 -17 -2 -20 -11 -3 -9 -10 -13 -15 -10 -5 3 -9
1 -9 -3 0 -5 -9 -14 -21 -21 -17 -11 -20 -11 -14 0 5 7 -2 3 -14 -9 -12 -13
-28 -23 -37 -23 -8 0 -19 -10 -24 -22 -5 -13 -9 -17 -9 -10 -1 7 -6 10 -11 7
-6 -4 -8 -11 -5 -16 3 -5 -2 -6 -11 -2 -11 4 -15 2 -11 -4 4 -6 -3 -13 -14
-16 -14 -4 -18 -10 -13 -19 5 -9 2 -8 -11 2 -10 8 -16 11 -13 5 7 -12 -17 -37
-26 -28 -3 4 -6 -1 -6 -10 0 -9 -7 -17 -16 -17 -9 0 -12 -5 -8 -12 4 -6 3 -8
-4 -4 -6 3 -13 2 -17 -4 -4 -6 -11 -8 -16 -5 -5 4 -9 1 -9 -6 0 -17 -41 -50
-53 -42 -6 3 -7 1 -3 -5 4 -7 3 -12 -3 -12 -5 0 -12 -9 -16 -19 -4 -13 -12
-18 -22 -14 -11 4 -14 2 -9 -5 4 -7 2 -12 -4 -12 -6 0 -8 -5 -4 -12 4 -6 3 -8
-4 -4 -6 3 -17 -3 -25 -14 -7 -11 -17 -17 -20 -13 -7 6 -11 -12 -8 -30 1 -5
-3 -6 -8 -3 -12 8 -43 -22 -36 -34 3 -5 -4 -12 -16 -15 -11 -4 -18 -9 -15 -13
3 -3 -3 -12 -14 -19 -11 -8 -18 -19 -14 -24 3 -5 2 -8 -3 -7 -4 2 -9 -1 -10
-5 -1 -4 -15 -20 -30 -35 -15 -15 -37 -39 -48 -52 l-20 -25 20 14 c11 8 7 2
-8 -13 -17 -17 -26 -34 -22 -43 5 -14 3 -14 -12 -2 -11 9 -14 10 -9 2 4 -7 3
-13 -3 -13 -6 0 -7 -7 -4 -17 5 -12 3 -14 -7 -8 -10 6 -12 4 -7 -9 4 -9 3 -15
-2 -12 -5 3 -15 -2 -22 -11 -10 -12 -10 -14 -1 -9 6 4 12 3 12 -1 0 -5 -9 -14
-20 -21 -12 -7 -18 -17 -15 -22 3 -6 1 -10 -5 -10 -6 0 -8 -4 -5 -10 3 -5 1
-10 -4 -10 -6 0 -10 -4 -9 -9 2 -5 -6 -17 -17 -26 -11 -9 -13 -14 -5 -10 12 5
12 4 -1 -7 -9 -7 -14 -19 -12 -25 3 -7 0 -13 -7 -13 -6 0 -8 -4 -5 -10 3 -5 1
-10 -5 -10 -7 0 -9 -7 -6 -16 3 -8 2 -12 -4 -9 -6 3 -10 -3 -10 -14 0 -10 -5
-21 -10 -23 -6 -2 -12 -13 -13 -25 0 -13 -8 -25 -15 -28 -12 -4 -12 -8 -1 -22
10 -12 10 -14 2 -9 -12 7 -15 3 -17 -26 -1 -7 -8 -19 -16 -26 -8 -8 -9 -11 -2
-7 6 3 12 2 12 -3 0 -6 -7 -12 -15 -16 -8 -3 -12 -12 -9 -21 3 -8 1 -15 -4
-15 -6 0 -9 -9 -7 -20 2 -11 -1 -20 -7 -20 -5 0 -7 -7 -4 -15 3 -9 -1 -18 -9
-22 -12 -4 -13 -9 -4 -19 9 -11 9 -14 0 -14 -7 0 -9 -4 -6 -10 3 -5 1 -10 -6
-10 -7 0 -10 -3 -7 -6 4 -3 2 -20 -3 -37 -6 -18 -12 -41 -14 -51 -3 -10 -9
-33 -14 -50 -5 -17 -13 -50 -16 -73 -6 -40 -10 -43 -48 -54 -23 -6 -51 -16
-62 -22 -11 -6 -29 -12 -40 -14 -10 -2 -22 -8 -26 -15 -4 -6 -12 -7 -18 -4 -6
4 -11 2 -11 -3 0 -6 -9 -11 -21 -11 -11 0 -18 -4 -15 -8 2 -4 -3 -8 -12 -9
-36 -3 -56 -10 -60 -21 -2 -7 -8 -10 -13 -6 -5 3 -9 0 -9 -6 0 -6 -4 -8 -10
-5 -5 3 -10 1 -10 -5 0 -6 -4 -9 -9 -6 -5 3 -12 -1 -15 -10 -3 -8 -10 -13 -15
-10 -5 4 -16 -1 -24 -9 -9 -8 -20 -15 -24 -15 -5 0 -24 -11 -43 -25 -18 -13
-38 -22 -43 -18 -6 3 -7 2 -4 -4 4 -6 -5 -15 -18 -21 -14 -7 -25 -16 -25 -22
0 -5 -9 -10 -21 -10 -11 0 -17 -4 -14 -10 6 -9 -7 -14 -27 -11 -4 0 -4 -7 -1
-16 4 -11 3 -14 -5 -9 -7 4 -12 2 -12 -4 0 -6 -4 -8 -10 -5 -9 5 -14 -7 -12
-26 1 -4 -6 -6 -16 -5 -10 0 -16 -5 -14 -13 2 -8 -3 -11 -13 -8 -9 4 -15 1
-15 -8 0 -8 -7 -15 -15 -15 -9 0 -12 -6 -8 -17 4 -10 2 -14 -4 -10 -6 4 -14 0
-17 -9 -3 -8 -11 -12 -18 -8 -7 5 -9 1 -6 -14 4 -14 2 -19 -7 -15 -15 5 -38
-30 -27 -42 4 -5 2 -6 -3 -2 -6 3 -17 2 -25 -4 -11 -6 -12 -9 -2 -9 7 0 2 -11
-13 -25 -14 -14 -25 -30 -25 -36 0 -6 -4 -8 -8 -5 -4 2 -14 -4 -21 -16 -10
-16 -10 -19 1 -13 7 5 3 -2 -10 -14 -12 -12 -20 -27 -16 -32 3 -5 0 -8 -8 -7
-7 2 -12 -3 -11 -9 2 -7 -2 -13 -8 -13 -5 0 -8 -4 -4 -9 3 -6 -3 -14 -12 -20
-10 -6 -14 -11 -8 -11 5 0 0 -7 -12 -15 -14 -10 -19 -22 -16 -35 3 -12 -1 -22
-10 -26 -9 -3 -14 -14 -12 -24 3 -13 -1 -17 -11 -13 -10 4 -12 0 -8 -11 3 -9
2 -16 -3 -16 -5 0 -9 -10 -10 -22 -1 -11 -6 -24 -10 -27 -4 -3 -14 -17 -21
-30 -11 -19 -11 -22 0 -15 10 6 11 5 1 -8 -7 -8 -10 -18 -6 -21 3 -4 1 -7 -6
-7 -7 0 -11 -6 -8 -14 3 -8 0 -20 -8 -26 -8 -6 -11 -18 -8 -26 3 -8 1 -14 -4
-14 -8 0 -13 -18 -16 -62 -1 -10 -5 -18 -10 -18 -4 0 -5 -4 -2 -10 3 -5 2 -10
-4 -10 -5 0 -9 -8 -9 -17 0 -10 -2 -31 -6 -48 -17 -78 -21 -133 -21 -305 0
-192 9 -280 29 -292 8 -6 7 -8 -2 -8 -9 0 -10 -5 -2 -19 5 -11 11 -31 12 -45
1 -15 6 -26 10 -26 4 0 7 -3 7 -7 -4 -24 2 -53 10 -49 4 3 7 -6 5 -19 -1 -14
2 -25 7 -25 5 0 8 -3 7 -7 -3 -15 22 -92 32 -98 6 -4 8 -11 5 -16 -4 -5 0 -12
8 -15 9 -3 13 -13 10 -25 -3 -11 0 -19 7 -19 7 0 10 -7 6 -15 -3 -9 1 -18 9
-21 8 -4 12 -10 9 -15 -3 -5 0 -9 6 -9 6 0 8 -4 5 -10 -3 -6 -1 -10 4 -10 6 0
11 -7 11 -15 0 -7 6 -18 13 -22 6 -4 12 -15 12 -23 0 -8 5 -14 12 -13 7 2 10
-6 8 -17 -2 -12 5 -26 18 -35 12 -8 17 -15 12 -15 -6 0 -3 -6 5 -13 8 -7 21
-24 29 -39 8 -15 23 -30 33 -34 10 -3 16 -10 13 -15 -3 -5 12 -27 34 -49 22
-22 37 -40 34 -40 -3 0 4 -8 15 -19 12 -10 18 -22 14 -27 -4 -4 1 -2 11 5 15
12 17 12 11 -3 -4 -10 1 -18 14 -23 12 -5 21 -11 21 -15 1 -5 3 -7 5 -5 8 4
46 -36 46 -50 0 -7 3 -12 8 -12 17 3 32 -1 29 -8 -1 -5 0 -8 3 -8 3 0 20 -15
39 -33 19 -17 40 -32 47 -32 8 0 14 -6 14 -14 0 -10 7 -13 20 -11 11 2 18 0
15 -6 -4 -5 1 -9 9 -9 9 0 16 -4 16 -10 0 -5 7 -10 15 -10 9 0 18 -6 21 -14 3
-9 12 -12 21 -9 11 4 14 2 9 -5 -5 -8 0 -12 13 -12 12 0 30 -9 40 -19 14 -14
22 -16 31 -8 6 7 10 8 8 2 -2 -5 0 -10 4 -10 3 0 19 -11 34 -25 16 -14 22 -17
15 -7 -12 15 -12 17 3 11 9 -3 16 -10 16 -15 0 -5 3 -8 8 -7 4 1 16 -3 27 -9
11 -6 31 -13 45 -14 14 -2 27 -7 30 -11 3 -4 17 -10 30 -12 14 -2 25 -5 25 -6
0 -1 11 -3 24 -6 14 -2 31 -10 40 -17 12 -10 13 -9 6 3 -7 12 -6 13 6 3 8 -7
32 -13 52 -15 20 -1 37 -5 37 -8 0 -4 10 -6 23 -5 12 1 25 -3 29 -9 5 -7 8 -6
8 4 0 13 1 13 10 0 8 -12 10 -12 10 -1 0 10 6 10 26 -4 15 -9 24 -12 20 -7 -4
6 2 10 14 9 11 -1 20 -5 20 -10 0 -5 7 -4 15 3 11 9 15 9 15 1 0 -8 5 -9 19
-1 12 6 22 6 25 1 7 -10 25 -9 44 3 7 4 18 3 25 -3 8 -6 18 -6 27 -1 9 5 19 5
27 -1 8 -7 18 -7 32 0 14 8 22 8 26 1 5 -8 11 -7 21 1 10 8 18 8 27 1 8 -7 18
-7 27 -2 8 5 19 5 25 1 13 -11 45 -10 45 1 0 5 9 4 20 -2 15 -8 20 -8 20 2 0
8 3 9 8 3 8 -12 52 -13 70 -2 6 5 18 5 25 0 16 -10 48 -11 69 -1 9 4 19 4 22
0 6 -10 36 -9 54 2 6 4 12 3 12 -2 0 -12 53 -10 62 3 5 7 8 6 8 0 0 -12 49
-13 68 -2 6 5 18 5 25 0 16 -10 48 -11 69 -1 9 4 19 4 22 0 6 -10 36 -9 54 2
6 4 12 3 12 -2 0 -11 40 -10 58 2 8 5 18 4 24 -2 7 -7 17 -8 29 -2 11 6 20 6
23 1 7 -10 25 -9 43 2 6 4 15 3 18 -3 5 -8 11 -7 21 1 10 8 18 8 27 1 8 -7 18
-7 27 -2 8 5 19 5 25 1 13 -11 45 -10 45 1 0 4 5 8 11 8 5 0 8 -4 5 -8 -6 -10
24 -9 41 1 6 4 14 3 18 -3 3 -5 11 -10 16 -10 6 0 7 5 3 11 -5 8 -1 8 14 0 14
-7 23 -8 27 -1 4 6 12 7 18 3 17 -10 40 -10 55 1 7 5 12 5 12 -1 0 -12 39 -11
58 1 8 5 18 4 24 -2 7 -7 17 -8 29 -2 11 6 20 6 23 1 7 -10 25 -9 41 1 6 4 17
3 25 -2 9 -5 19 -5 27 2 7 6 13 6 13 1 0 -5 9 -9 20 -10 12 -1 18 3 14 9 -4 6
1 6 14 -1 14 -8 23 -8 27 -1 5 8 11 7 21 -1 11 -9 14 -8 14 2 0 9 3 10 8 4 8
-12 27 -13 38 -3 4 4 13 3 20 -3 9 -7 19 -7 34 1 14 8 25 8 33 1 8 -6 18 -6
27 -1 9 5 19 5 26 -1 14 -11 36 -8 46 6 5 6 8 5 8 -3 0 -10 5 -10 21 -2 14 8
24 8 32 1 8 -6 18 -6 27 -1 8 5 19 5 25 1 13 -11 45 -10 45 1 0 4 5 8 11 8 5
0 8 -4 5 -8 -6 -10 24 -9 41 1 6 4 14 3 18 -3 3 -5 11 -10 16 -10 6 0 7 5 3
11 -5 8 -1 8 14 0 14 -8 23 -8 27 -1 4 6 12 7 18 3 15 -10 38 -10 55 0 6 5 12
4 12 -1 0 -11 40 -10 58 2 8 5 18 4 24 -2 7 -7 17 -8 29 -2 11 6 20 6 23 1 7
-10 25 -9 41 1 6 4 17 3 25 -2 9 -5 19 -5 27 2 7 6 13 6 13 1 0 -5 9 -9 20
-10 12 -1 18 3 14 9 -4 7 0 7 13 -1 14 -7 23 -7 30 0 8 8 13 7 17 0 4 -6 12
-11 17 -11 6 0 7 5 3 11 -5 8 -1 8 13 0 14 -7 23 -7 30 0 8 8 13 7 17 0 4 -6
12 -11 17 -11 6 0 7 5 3 11 -5 8 -1 8 13 0 14 -7 23 -7 30 0 8 8 13 7 17 0 4
-6 12 -11 17 -11 6 0 7 5 3 11 -5 8 -1 8 14 0 14 -8 23 -8 27 -1 4 6 12 7 18
3 15 -10 38 -10 55 0 6 5 12 4 12 -1 0 -11 40 -10 58 2 7 4 19 3 27 -4 9 -8
15 -8 20 0 3 6 11 8 16 5 18 -11 49 -14 54 -4 4 6 13 5 24 -1 12 -6 22 -5 29
2 7 7 12 8 12 2 0 -5 9 -10 20 -11 13 -1 18 2 13 10 -5 9 -3 9 8 0 12 -10 18
-10 27 -1 7 7 12 8 12 2 0 -5 9 -10 20 -11 13 -1 18 2 13 10 -4 8 -1 8 9 -1
11 -9 18 -10 23 -2 4 7 12 7 25 0 25 -13 33 -13 24 3 -6 9 -4 9 8 -1 12 -9 18
-10 23 -2 5 8 10 8 20 0 10 -8 15 -8 20 0 5 8 10 8 20 0 9 -8 15 -8 20 0 4 6
12 7 23 1 11 -6 24 -6 34 0 9 5 19 5 22 1 6 -10 57 -9 74 2 7 4 18 4 25 -1 16
-10 48 -11 69 -1 9 4 19 4 22 0 6 -10 36 -9 54 2 6 4 12 3 12 -1 0 -5 9 -9 20
-10 13 -1 18 2 13 10 -5 9 -3 9 8 0 12 -10 18 -10 27 -1 7 7 12 8 12 2 0 -5 9
-10 20 -11 13 -1 18 2 13 10 -5 9 -3 9 8 0 12 -10 18 -10 27 -1 7 7 12 8 12 2
0 -5 9 -10 20 -11 13 -1 18 2 14 10 -5 9 -3 9 6 0 10 -9 17 -10 27 -2 7 7 13
7 13 2 0 -5 9 -9 20 -10 13 -1 18 2 13 10 -5 9 -3 9 8 0 12 -10 18 -10 27 -1
9 9 12 9 12 1 0 -11 30 -10 49 2 5 3 12 2 15 -3 6 -10 57 -9 74 2 7 4 19 3 27
-4 9 -8 15 -8 20 0 3 6 11 8 16 5 18 -11 49 -14 54 -4 4 6 13 5 24 -1 12 -6
22 -5 29 2 7 7 12 8 12 2 0 -5 9 -10 20 -11 12 -1 18 3 14 9 -4 7 0 7 13 -1
14 -7 23 -7 30 0 8 8 13 7 17 0 4 -6 12 -11 17 -11 6 0 7 5 3 11 -5 8 -1 8 14
0 14 -8 23 -8 27 -1 4 7 12 7 18 2 14 -10 27 -10 45 2 7 4 18 3 25 -3 8 -6 18
-6 27 -1 8 5 19 5 25 1 14 -11 45 -10 45 2 0 5 6 5 13 -2 10 -8 17 -7 25 1 8
8 15 8 24 0 9 -7 19 -7 28 -2 8 5 19 5 25 1 13 -11 45 -10 45 1 0 4 5 8 11 8
5 0 8 -4 5 -9 -8 -12 27 -8 36 4 5 7 8 6 8 0 0 -6 9 -11 20 -12 12 -1 18 3 14
9 -4 6 1 6 14 -1 14 -8 23 -8 27 -1 4 6 12 7 18 3 15 -10 38 -10 55 0 6 5 12
4 12 -2 0 -10 34 -8 61 4 10 3 20 2 24 -4 4 -8 12 -8 25 -1 11 6 21 6 24 1 7
-10 25 -9 41 1 6 4 17 3 25 -2 9 -5 19 -5 27 2 7 6 13 6 13 1 0 -5 9 -9 20
-10 12 -1 18 3 14 9 -4 7 0 7 13 -1 14 -7 23 -7 30 0 8 8 13 7 17 0 4 -6 12
-11 17 -11 6 0 7 5 3 11 -4 8 0 8 15 0 16 -9 21 -9 21 1 0 8 3 9 8 3 8 -13 42
-13 60 -1 7 4 18 3 25 -3 8 -6 18 -6 27 -1 9 5 19 5 27 -1 8 -7 18 -7 32 0 14
8 22 8 26 1 5 -8 11 -7 21 1 10 8 18 8 27 1 8 -7 18 -7 27 -2 8 5 19 5 25 1
13 -11 45 -10 45 1 0 5 10 4 21 -3 16 -8 20 -8 14 1 -6 9 -2 9 14 1 16 -9 21
-9 21 1 0 10 3 9 9 -1 8 -12 12 -12 25 -2 12 11 16 11 16 1 0 -10 3 -10 15 0
10 8 15 9 15 1 0 -7 8 -8 26 -1 14 6 23 6 20 1 -7 -11 13 -9 32 2 6 5 17 5 22
2 6 -3 10 -1 10 6 0 8 4 8 15 -1 14 -11 19 -7 16 13 -1 4 7 3 18 -2 10 -6 21
-8 23 -5 5 4 17 8 75 20 12 2 35 10 50 16 16 6 38 13 50 14 12 2 34 11 49 21
16 10 31 17 34 17 3 -1 4 3 2 9 -2 6 4 5 12 -3 13 -10 16 -10 16 3 0 10 6 14
15 11 8 -4 15 -1 15 5 0 6 3 10 8 10 22 -4 42 2 37 11 -3 6 3 10 15 10 11 0
23 7 26 15 4 8 11 12 17 8 6 -4 8 0 5 9 -5 11 0 14 17 12 15 -1 30 6 42 22 10
13 21 24 25 24 10 0 33 20 103 88 30 30 55 51 55 47 0 -3 7 0 15 9 18 17 20
30 3 20 -7 -5 -8 -3 -4 5 5 7 15 10 24 6 9 -3 13 -3 10 1 -4 3 0 13 8 21 8 8
12 19 8 24 -3 5 0 8 8 7 7 -2 12 5 12 14 -1 10 1 17 5 16 19 -2 31 3 26 12 -3
6 -1 10 5 10 6 0 9 4 6 9 -3 5 1 12 10 15 9 4 14 13 10 22 -3 8 -2 13 3 9 5
-3 15 8 23 25 7 16 16 30 20 30 4 0 4 7 1 17 -4 11 -3 14 5 9 11 -6 17 6 13
27 -1 4 6 10 14 13 8 4 15 10 15 16 0 5 -5 6 -12 2 -7 -4 -1 8 12 26 13 19 18
30 9 26 -7 -4 -6 -1 4 7 10 8 19 24 20 36 1 12 5 21 9 21 4 0 5 7 2 15 -4 8
-1 15 5 15 6 0 11 11 11 25 0 14 6 25 13 25 8 0 7 4 -3 10 -9 6 -11 10 -3 10
7 0 10 7 7 15 -4 8 -1 15 7 15 7 0 9 3 6 7 -4 3 -2 12 4 20 9 10 8 13 -1 13
-9 0 -10 3 -1 13 6 8 8 17 4 20 -3 4 -2 7 3 7 5 0 9 17 8 38 0 20 2 42 5 47
10 19 9 35 -2 35 -9 0 -9 2 -1 8 13 8 13 170 0 191 -6 10 -5 12 2 7 16 -9 15
7 0 22 -9 9 -9 12 0 12 9 0 10 6 4 18 -5 9 -9 32 -11 51 -1 19 -7 41 -14 50
-10 12 -9 13 2 6 11 -6 12 -5 5 6 -9 14 -14 34 -16 57 -1 6 -5 12 -9 12 -4 0
-6 9 -4 19 2 11 -3 22 -12 25 -12 5 -13 9 -3 21 9 11 9 15 1 15 -7 0 -9 5 -6
10 3 6 1 10 -5 10 -6 0 -9 4 -5 9 3 5 1 12 -4 16 -6 3 -8 12 -5 19 3 8 0 17
-7 22 -8 5 -10 3 -4 -7 5 -8 4 -11 0 -6 -5 4 -11 20 -13 35 -2 15 -8 30 -14
33 -6 4 -8 11 -4 17 3 5 -1 15 -9 22 -8 7 -12 17 -8 23 3 6 1 7 -5 3 -8 -5
-12 0 -12 14 0 11 -7 23 -15 26 -8 4 -12 10 -9 15 3 5 -2 12 -10 15 -9 3 -14
10 -11 14 3 4 -2 10 -10 14 -8 3 -15 12 -15 21 0 8 -4 15 -10 15 -5 0 -10 7
-10 15 0 8 -5 15 -11 15 -5 0 -7 6 -3 13 6 9 4 9 -8 -1 -14 -11 -16 -10 -11 8
4 16 2 19 -12 13 -12 -4 -16 -3 -11 5 3 6 2 13 -4 17 -6 4 -7 11 -4 17 4 6 3
9 -2 6 -12 -7 -64 48 -55 58 3 4 -2 4 -11 1 -10 -3 -17 -3 -15 1 1 4 -2 8 -6
9 -11 2 -47 44 -47 55 0 4 -5 8 -11 8 -6 0 -20 10 -31 23 -11 12 -17 15 -13 7
4 -10 1 -9 -8 3 -21 25 -100 76 -109 71 -4 -3 -8 0 -8 6 0 6 -6 10 -14 8 -8
-2 -23 8 -35 21 -13 15 -27 22 -40 18 -12 -3 -19 0 -18 6 1 6 -8 13 -20 15
-13 2 -23 7 -23 12 0 4 -11 7 -25 5 -14 -1 -28 2 -31 6 -8 13 -75 40 -84 34
-5 -3 -11 -1 -15 4 -3 6 -12 8 -20 4 -8 -3 -15 -1 -15 5 0 8 -20 12 -72 13
-10 0 -18 5 -18 11 0 6 -6 6 -15 -2 -9 -8 -15 -9 -15 -2 0 6 -9 9 -20 7 -11
-2 -20 0 -20 4 0 4 -7 8 -15 8 -8 0 -12 -4 -9 -9 8 -12 -10 -10 -24 4 -9 9
-12 9 -12 -1 0 -7 -5 -9 -12 -5 -20 13 -661 12 -677 0 -11 -8 -13 -8 -8 0 7
13 -91 13 -112 0 -10 -6 -12 -5 -7 3 8 12 -33 9 -55 -5 -7 -4 -10 -3 -6 2 3 5
-30 10 -76 11 -60 1 -103 8 -157 27 -41 14 -79 27 -85 28 -5 2 -12 5 -15 8
-20 20 -91 70 -99 70 -6 0 -11 4 -11 8 0 5 -8 17 -18 28 -68 73 -118 183 -134
292 -9 65 -8 92 5 158 18 85 71 204 112 248 14 15 25 30 25 34 1 4 23 23 50
42 26 19 46 39 43 45 -4 5 -3 7 2 3 7 -7 80 27 95 42 7 8 87 31 124 36 45 6
167 6 196 0 49 -11 135 -40 140 -47 3 -4 12 -9 20 -11 8 -2 21 -9 28 -16 8 -7
18 -9 24 -6 7 4 8 2 4 -4 -4 -7 -3 -12 2 -12 16 0 116 -103 136 -140 10 -19
24 -39 31 -45 7 -5 12 -14 12 -18 2 -21 28 -95 32 -92 4 2 6 -9 7 -23 2 -61 9
-102 16 -102 5 0 4 -9 -2 -20 -6 -11 -7 -20 -2 -20 4 0 9 -16 10 -36 4 -51 6
-58 17 -66 6 -5 5 -8 -3 -8 -10 0 -9 -4 2 -16 9 -8 14 -20 11 -25 -4 -5 -1 -9
4 -9 6 0 11 -8 11 -17 0 -10 10 -29 21 -43 l21 -25 -16 30 c-17 29 -17 29 1 9
10 -12 24 -30 31 -40 7 -11 10 -13 6 -6 -5 11 -2 11 14 1 12 -7 18 -18 14 -24
-3 -5 3 -3 13 5 11 9 16 10 11 3 -5 -9 0 -13 16 -14 13 0 33 -2 46 -5 16 -3
22 1 23 14 1 11 4 9 9 -8 4 -14 8 -18 9 -10 1 9 12 16 28 17 14 0 30 9 36 18
8 14 11 15 18 4 7 -12 9 -11 9 1 0 8 10 26 21 40 l21 25 -16 -30 -17 -30 25
30 c14 16 23 31 21 34 -3 2 1 11 8 19 10 13 9 15 -3 8 -8 -4 -6 0 4 8 11 9 17
19 13 22 -4 4 -2 13 5 21 6 7 8 16 5 20 -4 3 -2 15 4 26 9 15 8 18 -3 12 -10
-6 -11 -5 0 6 16 17 16 32 0 23 -10 -6 -10 -4 -2 7 12 17 12 68 0 88 -6 10 -5
12 2 7 16 -9 15 7 0 22 -9 9 -9 12 0 12 9 0 10 5 4 18 -5 9 -7 23 -5 30 3 6 0
12 -6 12 -7 0 -7 8 -1 26 7 16 7 23 0 19 -6 -4 -10 6 -10 22 0 16 -5 34 -12
41 -7 7 -8 12 -4 12 5 0 2 8 -5 17 -10 11 -10 14 -1 9 6 -4 12 -3 12 3 0 5 -5
11 -10 13 -6 2 -12 13 -14 25 -3 12 -10 31 -16 42 -6 12 -7 21 -3 21 4 0 0 5
-9 11 -10 5 -15 16 -12 24 4 8 1 15 -6 15 -6 0 -8 5 -5 10 3 6 1 10 -5 10 -6
0 -9 4 -6 9 3 5 -1 11 -9 15 -8 3 -12 12 -9 20 3 8 -5 21 -18 30 -12 9 -18 16
-13 16 6 0 6 3 0 8 -5 4 -15 16 -22 27 -6 11 -16 19 -21 18 -6 -2 -9 7 -7 18
3 15 0 19 -11 15 -8 -3 -13 -2 -10 2 7 12 -22 45 -33 37 -7 -3 -8 0 -5 9 4 11
0 16 -11 16 -9 0 -14 4 -11 9 3 5 -7 17 -22 27 -15 9 -40 31 -56 48 -16 17
-26 24 -22 16 4 -9 2 -8 -7 3 -8 9 -20 17 -26 17 -7 0 -9 5 -6 10 3 6 -3 10
-13 10 -11 0 -23 7 -26 16 -4 9 -13 14 -22 10 -8 -3 -12 -2 -9 4 6 9 -8 14
-27 11 -5 0 -8 7 -8 17 0 13 -2 14 -9 4 -6 -11 -10 -10 -15 3 -3 9 -12 15 -19
12 -8 -3 -19 4 -26 15 -9 15 -15 17 -26 8 -10 -8 -16 -7 -24 7 -6 10 -11 14
-11 9 0 -5 -8 -2 -17 5 -15 12 -16 12 -8 -1 7 -11 2 -10 -19 3 -15 11 -37 17
-47 14 -10 -3 -17 -1 -14 3 3 5 1 11 -4 14 -5 4 -13 2 -16 -4 -5 -8 -11 -8
-19 -1 -7 6 -34 12 -59 12 -30 2 -44 6 -40 13 4 6 0 5 -9 -2 -13 -10 -17 -10
-21 0 -4 10 -6 10 -6 -1 -1 -11 -4 -11 -16 -1 -12 10 -15 10 -15 -1 0 -11 -2
-11 -10 1 -8 12 -10 12 -10 1 0 -11 -3 -11 -17 0 -19 16 -23 16 -34 -3 -7 -11
-9 -11 -9 1 0 10 -3 11 -14 2 -10 -9 -16 -9 -21 -1 -5 8 -10 8 -20 0 -9 -7
-15 -8 -20 -1 -3 6 -13 7 -23 2 -37 -18 -82 -30 -76 -19 5 7 2 8 -7 2 -8 -5
-25 -10 -39 -12 -14 -2 -32 -9 -40 -16 -8 -7 -25 -11 -37 -10 -13 0 -23 -3
-23 -8 0 -5 -4 -6 -10 -3 -5 3 -10 -2 -11 -12 0 -10 -3 -13 -5 -7 -5 13 -63
-10 -76 -30 -4 -6 -8 -8 -8 -3 0 4 -10 1 -23 -8 -13 -8 -27 -13 -30 -10 -4 3
-5 2 -2 -2 3 -4 -9 -13 -26 -20 -17 -7 -28 -17 -24 -23 4 -6 3 -9 -2 -8 -14 4
-53 -13 -53 -23 0 -6 5 -7 12 -3 7 4 8 3 4 -5 -4 -6 -11 -9 -15 -7 -14 9 -53
-25 -47 -41 3 -8 2 -11 -3 -8 -5 3 -12 1 -16 -5 -3 -5 -16 -10 -28 -11 -12 0
-16 -3 -9 -6 9 -3 3 -14 -18 -34 -17 -17 -28 -34 -25 -39 3 -5 -3 -7 -14 -5
-14 2 -18 -1 -15 -10 3 -7 -4 -18 -15 -25 -11 -6 -20 -16 -18 -23 1 -7 -3 -11
-10 -10 -7 2 -10 -4 -7 -12 4 -8 1 -15 -6 -15 -6 0 -8 -4 -5 -10 3 -5 1 -10
-5 -10 -6 0 -18 -17 -27 -37 -8 -21 -20 -41 -27 -45 -8 -6 -7 -8 2 -8 11 0 10
-3 -1 -14 -8 -8 -21 -35 -28 -60 -7 -26 -17 -46 -21 -46 -4 0 -4 -7 -1 -17 4
-10 2 -14 -5 -9 -7 4 -10 -1 -7 -14 2 -11 0 -22 -5 -25 -5 -3 -8 -19 -6 -35 2
-18 -2 -31 -11 -34 -11 -5 -11 -10 -2 -27 6 -12 7 -24 2 -28 -5 -3 -10 -26
-11 -51 -1 -25 -3 -60 -5 -78 -2 -18 0 -35 5 -38 4 -3 4 -14 -2 -24 -7 -13 -7
-21 0 -25 6 -4 7 -11 4 -17 -4 -6 0 -14 7 -19 12 -7 12 -9 0 -9 -11 0 -11 -3
0 -17 12 -15 12 -16 -1 -8 -12 7 -13 6 -4 -6 5 -8 11 -30 13 -49 1 -19 6 -39
11 -44 5 -5 6 -15 3 -22 -3 -8 0 -14 7 -14 6 0 8 -5 4 -11 -3 -6 0 -15 7 -20
12 -7 12 -9 0 -9 -11 0 -10 -4 5 -16 10 -8 13 -12 5 -9 -9 6 -9 1 3 -17 9 -14
13 -28 9 -31 -3 -4 -1 -7 6 -7 7 0 9 -4 6 -10 -3 -5 -1 -10 4 -10 6 0 11 -7
11 -15 0 -8 4 -15 10 -15 5 0 7 -7 4 -15 -4 -8 1 -17 10 -21 9 -3 16 -10 16
-16 0 -5 -6 -6 -12 -3 -7 4 -4 -1 6 -9 11 -9 16 -16 10 -17 -5 0 1 -4 13 -9
15 -6 21 -15 17 -25 -4 -10 0 -15 12 -16 11 0 14 -3 7 -6 -8 -3 -4 -13 12 -29
14 -14 23 -30 19 -35 -3 -5 -2 -9 3 -8 4 1 15 1 23 0 13 -1 13 -2 0 -11 -13
-8 -12 -10 3 -10 15 0 21 -11 18 -32 0 -4 6 -5 14 -2 10 4 15 0 15 -11 0 -13
6 -16 21 -12 17 5 18 3 7 -11 -11 -13 -11 -15 4 -9 13 4 16 2 11 -11 -3 -9 -3
-14 2 -10 4 4 17 -4 28 -18 11 -14 26 -23 34 -20 8 3 11 2 8 -3 -9 -16 16 -25
27 -10 8 11 8 10 4 -4 -4 -13 0 -20 14 -24 11 -3 20 -9 20 -13 0 -5 14 -11 30
-15 19 -4 30 -13 30 -23 0 -15 2 -15 10 -2 8 12 10 12 10 -5 0 -17 2 -17 10
-5 9 13 14 8 11 -12 0 -4 8 -5 19 -3 11 2 20 -1 20 -7 0 -5 7 -8 15 -4 8 3 15
2 15 -2 0 -4 13 -13 30 -19 21 -8 30 -8 34 1 2 6 5 4 5 -6 1 -11 7 -15 21 -11
11 3 20 1 20 -3 0 -5 21 -10 47 -12 26 -2 51 -8 55 -15 4 -7 8 -7 8 -2 0 6 9
11 20 11 11 0 20 -4 20 -9 0 -5 7 -4 15 3 10 9 15 9 15 1 0 -13 22 -10 32 4 5
6 8 6 8 -1 0 -12 38 -13 58 0 7 4 18 3 25 -3 8 -6 18 -6 27 -1 8 5 19 5 25 1
14 -11 45 -10 45 2 0 5 6 5 13 -2 10 -7 17 -7 24 0 7 7 17 8 25 3 17 -11 49
-12 70 -2 10 5 19 4 23 -2 4 -7 12 -7 25 0 10 6 21 6 24 2 6 -10 57 -9 74 2 7
4 18 4 25 -1 18 -11 87 -10 87 2 0 5 4 4 9 -3 9 -15 20 -15 38 -1 7 6 13 6 17
1 6 -11 66 -9 84 2 6 3 13 2 16 -3 3 -4 32 -8 63 -7 32 1 63 -2 70 -6 6 -5 14
-4 18 2 3 6 12 7 18 3 7 -4 30 -8 52 -10 22 -1 40 -2 40 -3 0 -1 14 -4 30 -6
45 -8 70 -12 70 -14 0 -1 11 -4 24 -6 14 -2 38 -11 53 -19 19 -9 26 -10 21 -2
-3 7 3 4 14 -5 11 -10 27 -18 36 -18 9 0 17 -3 17 -8 0 -4 13 -13 29 -20 25
-11 42 -23 89 -62 6 -6 12 -8 12 -6 0 3 31 -25 68 -62 42 -41 64 -70 58 -74
-7 -5 -5 -8 5 -8 14 0 41 -40 43 -63 1 -4 8 -12 16 -17 8 -5 11 -10 6 -10 -6
0 -1 -7 10 -16 10 -8 13 -13 7 -9 -9 4 -11 1 -7 -9 3 -9 10 -16 16 -16 5 0 6
-4 3 -10 -3 -5 -1 -10 6 -10 7 0 10 -3 7 -6 -4 -3 1 -22 9 -42 8 -20 17 -46
19 -57 4 -27 12 -60 14 -60 4 0 9 -73 10 -150 2 -102 -7 -172 -32 -244 -7 -20
-13 -38 -13 -41 0 -3 -11 -26 -22 -53 -12 -26 -23 -51 -23 -55 -1 -4 -8 -11
-16 -15 -8 -5 -12 -12 -9 -18 4 -5 -1 -12 -9 -15 -9 -3 -14 -10 -11 -14 3 -4
-2 -11 -11 -14 -9 -4 -14 -13 -10 -21 3 -8 2 -14 -2 -13 -13 4 -51 -35 -45
-46 3 -6 3 -8 -1 -4 -10 8 -47 -23 -40 -34 3 -5 0 -7 -8 -6 -7 2 -12 -3 -10
-10 1 -8 -2 -11 -6 -8 -5 3 -22 -6 -36 -19 -15 -14 -31 -25 -37 -25 -5 0 -9
-5 -9 -11 0 -5 -4 -7 -10 -4 -5 3 -10 1 -10 -4 0 -6 -7 -11 -15 -11 -8 0 -15
-5 -15 -11 0 -5 -4 -7 -10 -4 -5 3 -10 1 -10 -4 0 -6 -3 -10 -7 -9 -5 1 -25
-6 -47 -15 -21 -9 -45 -17 -53 -17 -8 0 -11 -5 -7 -12 4 -7 3 -8 -5 -4 -6 4
-26 3 -44 -3 -17 -6 -47 -12 -64 -13 -18 -1 -33 -5 -33 -8 0 -3 -20 -5 -45 -5
-25 1 -48 -2 -51 -7 -3 -5 -12 -4 -20 3 -9 7 -19 8 -26 2 -7 -5 -53 -9 -103
-8 -50 1 -96 -3 -104 -9 -11 -8 -13 -8 -8 0 7 13 -91 13 -112 0 -9 -6 -12 -5
-8 1 8 12 -92 11 -112 -1 -9 -6 -12 -5 -8 1 4 6 -4 10 -18 10 -14 1 -22 -4
-18 -10 4 -6 1 -7 -7 -2 -20 12 -143 13 -159 1 -11 -8 -13 -8 -7 2 9 16 -6 16
-23 -1 -8 -7 -11 -7 -8 -1 4 7 -3 12 -18 12 -14 0 -22 -4 -19 -9 3 -5 -5 -5
-18 -1 -31 11 -159 9 -177 -2 -9 -6 -12 -5 -8 1 8 12 -92 11 -112 -1 -9 -6
-12 -5 -8 1 8 12 -92 11 -112 -1 -9 -6 -12 -5 -8 1 8 12 -92 11 -112 -1 -8 -5
-12 -5 -9 0 4 5 -81 9 -202 9 -115 0 -206 -4 -203 -8 3 -5 -3 -5 -13 0 -24 11
-144 10 -163 -1 -9 -6 -12 -5 -8 1 8 13 -52 11 -73 -2 -8 -5 -11 -4 -7 2 8 13
-52 11 -73 -2 -8 -5 -11 -4 -7 1 7 12 -133 11 -152 -1 -9 -5 -12 -4 -8 1 7 12
-133 11 -152 -1 -9 -5 -12 -4 -8 2 8 13 -52 11 -73 -2 -8 -5 -11 -4 -7 2 8 13
-52 11 -73 -2 -8 -5 -11 -4 -7 1 7 12 -133 11 -152 -1 -9 -5 -12 -4 -8 1 7 12
-133 11 -152 -1 -8 -5 -12 -4 -8 1 7 12 -293 11 -312 -1 -9 -5 -12 -4 -8 2 8
13 -52 11 -73 -2 -8 -5 -11 -4 -7 2 8 13 -52 11 -73 -2 -8 -5 -11 -4 -7 2 8
13 -52 11 -73 -2 -8 -5 -11 -4 -7 2 8 13 -52 11 -73 -2 -8 -5 -11 -4 -7 1 7
12 -133 11 -152 -1 -8 -5 -12 -4 -8 1 7 12 -303 12 -322 0 -8 -5 -12 -5 -8 0
7 12 -933 11 -952 0 -9 -6 -12 -5 -8 1 4 6 -4 11 -18 11 -14 0 -22 -4 -19 -9
3 -5 -5 -5 -18 -1 -31 11 -159 9 -177 -2 -9 -6 -12 -5 -8 1 8 12 -92 11 -112
-1 -9 -6 -12 -5 -8 1 8 12 -92 11 -112 -1 -9 -6 -12 -5 -8 1 4 6 -4 10 -18 10
-14 1 -22 -3 -19 -8 3 -5 -5 -5 -18 -1 -31 11 -159 9 -177 -2 -9 -6 -12 -5 -8
1 8 12 -92 11 -112 -1 -9 -6 -12 -5 -8 1 8 12 -92 11 -112 -1 -8 -6 -12 -5 -8
0 3 5 -55 9 -139 9 -79 0 -144 3 -144 6 0 3 -12 6 -27 6 -39 2 -93 11 -163 28
-8 2 -15 4 -15 5 0 3 -41 12 -62 14 -11 0 -19 4 -16 9 4 6 -12 11 -29 8 -5 0
-8 4 -8 10 0 5 -4 7 -10 4 -5 -3 -10 -1 -10 4 0 6 -7 11 -15 11 -17 0 -56 20
-66 34 -4 5 -12 5 -18 2 -6 -4 -11 -2 -11 4 0 7 -7 10 -14 7 -11 -4 -13 -1 -9
10 5 13 2 15 -11 10 -9 -4 -15 -3 -12 1 3 4 -4 14 -16 21 -16 10 -19 10 -13
-1 4 -7 -3 -2 -14 12 -11 14 -21 21 -21 17 0 -4 -12 4 -26 18 -14 14 -30 22
-36 19 -6 -4 -8 -3 -5 3 7 12 -26 46 -36 38 -4 -3 -5 -2 -3 1 6 8 -46 60 -56
57 -4 -2 -7 0 -7 5 3 19 -2 33 -11 27 -6 -3 -10 1 -10 9 0 9 -5 16 -10 16 -6
0 -16 11 -22 25 -6 14 -18 25 -27 26 -11 0 -12 2 -3 6 9 4 7 10 -7 22 -12 10
-18 20 -16 23 3 3 -1 11 -10 18 -8 7 -15 19 -15 26 0 8 -4 14 -10 14 -5 0 -10
5 -10 11 0 6 -10 25 -22 42 -12 17 -16 27 -9 23 10 -6 10 -3 -1 15 -7 13 -15
26 -18 29 -6 6 -12 30 -13 48 0 6 -4 12 -9 12 -5 0 -7 4 -4 9 3 5 -1 12 -10
15 -12 4 -13 10 -6 19 7 8 5 23 -8 50 -10 20 -14 35 -9 31 12 -7 11 3 -1 25
-25 48 -31 383 -7 408 11 10 8 25 -3 18 -5 -3 -3 6 5 21 7 14 12 35 10 45 -2
11 1 19 7 19 5 0 8 7 4 15 -3 8 -2 15 2 15 4 0 8 10 9 21 1 12 9 37 19 57 9
19 17 45 18 58 0 12 6 22 11 21 6 -1 9 4 8 11 -2 6 2 12 9 12 6 0 8 3 5 7 -4
3 -2 12 4 19 22 26 48 87 42 97 -3 6 -1 7 4 4 11 -7 46 39 46 60 0 6 5 11 11
10 6 -1 10 4 9 10 -2 7 2 12 9 10 7 -1 12 3 13 10 0 6 10 20 23 31 12 11 22
25 22 31 0 7 5 9 10 6 6 -3 10 2 10 11 0 10 3 14 7 11 3 -4 19 7 35 25 15 17
28 29 28 25 0 -3 14 7 30 23 17 17 35 30 41 30 5 0 22 12 36 28 14 15 19 18
12 7 -14 -19 -14 -19 12 0 15 11 25 22 24 25 -2 3 6 7 17 7 12 1 25 8 29 15 5
7 9 9 9 4 0 -6 7 -1 16 10 8 10 12 13 9 6 -6 -11 -3 -11 13 -1 12 7 19 16 16
20 -2 4 5 5 16 2 12 -3 20 0 20 8 0 7 3 9 7 6 3 -4 15 1 26 10 11 10 17 12 13
5 -7 -12 -4 -12 15 -1 13 7 35 15 49 17 13 2 27 7 30 12 3 4 14 8 25 8 58 -1
76 2 69 15 -5 9 -4 9 6 0 8 -7 19 -9 29 -4 9 5 28 8 44 7 15 -1 27 2 27 7 0 4
8 7 18 5 9 -1 22 1 29 5 6 4 22 8 36 9 18 2 24 7 22 20 -2 11 1 15 10 12 15
-6 38 29 27 41 -4 5 -2 5 4 2 13 -8 27 20 18 34 -3 5 0 9 6 9 7 0 10 6 7 14
-3 8 -1 17 6 20 9 3 8 5 -1 5 -7 1 -10 6 -6 13 4 6 9 30 10 52 2 23 6 64 9 91
3 28 7 66 10 85 2 19 4 35 6 35 1 0 3 9 4 20 2 11 6 34 10 50 4 17 7 38 8 48
1 9 4 17 7 17 5 0 9 18 12 58 1 6 6 12 11 12 5 0 7 9 4 20 -3 11 -2 20 3 20 8
0 25 48 22 63 -1 4 2 7 6 7 8 0 10 6 14 49 1 11 5 18 9 15 7 -4 33 55 30 69 0
4 4 7 10 7 5 0 7 5 4 10 -3 6 -2 10 4 10 10 0 27 38 23 53 -1 4 2 7 6 7 5 0
19 20 32 45 13 25 27 45 32 45 5 0 7 4 4 9 -3 5 1 12 10 15 9 4 14 9 11 12 -3
4 4 15 16 25 12 10 19 18 15 19 -3 0 6 13 20 29 67 73 91 101 85 101 -3 0 5 9
18 21 13 12 23 25 22 30 -2 5 1 8 7 6 5 -1 24 14 41 33 17 19 28 29 24 21 -6
-10 -4 -12 4 -7 7 5 10 14 7 21 -2 7 3 12 12 11 9 0 16 5 15 12 -3 10 11 17
20 10 2 -2 15 9 29 25 14 15 28 27 32 27 14 0 35 28 28 35 -4 5 -2 5 5 2 6 -4
19 0 27 9 9 8 16 12 16 7 0 -4 5 -1 10 7 5 8 15 15 22 15 7 1 12 6 11 13 -2 6
4 9 12 6 8 -4 15 -1 15 5 0 6 9 11 21 11 11 0 18 4 15 9 -3 5 6 12 21 16 15 3
33 14 41 23 7 9 11 12 8 5 -5 -8 0 -8 18 0 13 7 22 16 19 21 -4 5 1 7 10 3 10
-3 17 -2 17 4 0 6 5 7 10 4 6 -3 10 -1 10 4 0 6 3 10 8 9 6 -1 34 8 82 29 8 3
17 7 20 8 67 20 96 30 100 35 3 3 14 6 25 7 22 2 42 6 100 22 35 9 87 17 160
25 11 1 26 6 34 10 10 7 12 5 6 -3 -5 -10 -3 -11 11 -4 11 5 47 9 82 8 35 -1
65 2 68 7 3 5 11 5 17 1 7 -4 39 -8 72 -9 33 -1 83 -5 110 -9 28 -4 61 -8 75
-10 14 -2 25 -4 25 -5 0 -1 14 -4 30 -5 17 -2 45 -8 63 -13 17 -6 32 -8 32 -5
0 3 7 0 15 -7 9 -7 18 -10 22 -7 3 3 18 0 34 -9 16 -8 29 -12 29 -9 0 3 13 -1
29 -9 16 -9 31 -12 35 -9 3 4 6 0 6 -7 0 -7 3 -10 7 -7 3 4 13 1 21 -6 13 -10
15 -9 8 3 -4 8 0 6 8 -4 12 -15 16 -16 16 -5 1 10 3 10 11 -3 5 -10 27 -22 49
-28 21 -6 46 -18 55 -26 9 -9 19 -14 22 -11 3 3 12 -1 20 -9 8 -8 19 -12 24
-9 5 4 9 1 9 -4 0 -6 7 -11 16 -11 8 0 12 -4 9 -10 -5 -9 1 -12 21 -9 3 0 12
-8 21 -18 9 -11 12 -12 8 -3 -4 10 -2 9 8 -2 8 -10 19 -18 26 -18 6 0 11 -4
11 -10 0 -5 5 -10 11 -10 6 0 17 -7 26 -15 8 -8 19 -13 24 -10 5 4 9 0 9 -7 0
-7 25 -31 55 -53 30 -22 54 -44 55 -48 0 -5 4 -6 9 -2 5 3 12 -4 16 -15 4 -11
11 -18 16 -15 5 4 9 -1 9 -9 0 -14 11 -20 32 -17 4 0 5 -6 2 -14 -4 -10 0 -15
11 -15 9 0 13 -4 10 -10 -3 -5 2 -10 11 -10 10 0 15 -2 12 -5 -6 -6 15 -34 60
-82 12 -13 22 -26 22 -28 0 -3 8 -14 18 -24 34 -38 41 -49 35 -55 -4 -3 -1 -6
5 -6 7 0 12 -7 12 -15 0 -7 8 -19 18 -24 9 -6 13 -11 9 -11 -5 0 -1 -7 7 -16
9 -8 14 -20 11 -25 -4 -5 1 -9 10 -9 9 0 13 -5 10 -10 -4 -6 6 -27 21 -47 15
-20 22 -33 15 -29 -10 6 -10 4 0 -12 7 -12 17 -18 23 -15 5 3 6 1 3 -5 -9 -14
3 -43 14 -36 5 3 6 -2 3 -10 -3 -9 -1 -16 4 -16 6 0 9 -9 7 -19 -2 -11 3 -22
11 -25 7 -3 11 -12 8 -21 -4 -8 -1 -15 7 -15 7 0 9 -3 6 -7 -4 -3 1 -15 10
-26 10 -11 12 -17 6 -13 -18 10 -16 -5 4 -33 9 -14 11 -21 5 -17 -8 5 -10 2
-6 -8 3 -9 11 -16 17 -16 6 0 7 -3 4 -7 -4 -3 -2 -12 4 -20 9 -10 8 -13 -1
-13 -9 0 -10 -3 -1 -13 6 -8 8 -17 4 -20 -3 -4 -1 -7 5 -7 7 0 11 -3 11 -7 -5
-31 3 -73 12 -67 8 5 8 1 0 -13 -6 -11 -7 -23 -4 -27 8 -8 8 -9 18 -106 10
-96 10 -277 1 -360 -5 -36 -8 -77 -9 -92 0 -16 -3 -28 -7 -28 -3 0 -7 -12 -8
-27 -1 -36 -6 -61 -14 -69 -4 -3 -4 -12 -1 -20 3 -8 1 -14 -4 -14 -6 0 -9 -13
-8 -30 1 -16 -3 -30 -8 -30 -5 0 -7 -9 -4 -20 3 -11 0 -18 -7 -17 -6 1 -10 -4
-8 -12 1 -7 -3 -19 -9 -27 -6 -8 -8 -14 -4 -14 4 0 2 -7 -5 -15 -7 -9 -10 -18
-7 -21 3 -4 0 -13 -8 -20 -8 -8 -12 -23 -10 -34 2 -11 0 -18 -4 -15 -12 7 -23
-24 -14 -37 3 -6 2 -8 -3 -5 -6 3 -16 -3 -23 -15 -10 -16 -10 -19 1 -12 7 4 5
-2 -4 -13 -10 -11 -18 -27 -18 -37 0 -9 -7 -19 -15 -22 -8 -4 -13 -10 -10 -14
3 -4 -2 -13 -10 -20 -8 -7 -12 -16 -9 -21 3 -5 2 -9 -3 -9 -15 0 -55 -69 -47
-81 4 -7 3 -9 -3 -6 -5 3 -29 -21 -53 -54 -23 -32 -47 -59 -52 -59 -5 0 -6 -4
-3 -10 3 -5 -1 -10 -9 -10 -10 0 -13 -6 -9 -17 3 -10 3 -15 -2 -11 -10 10 -38
-19 -30 -32 3 -6 -1 -7 -9 -4 -11 4 -16 0 -16 -10 0 -9 -7 -16 -15 -16 -9 0
-20 -11 -27 -25 -6 -13 -15 -22 -19 -19 -5 3 -9 -2 -9 -10 0 -9 -3 -15 -7 -15
-18 3 -34 -2 -30 -8 3 -5 -1 -14 -9 -21 -8 -7 -14 -10 -14 -7 0 3 -6 0 -14 -7
-8 -7 -12 -16 -9 -20 2 -4 -4 -5 -13 -1 -12 4 -15 3 -10 -5 4 -7 1 -12 -7 -12
-8 0 -18 -7 -21 -16 -3 -8 -10 -12 -16 -9 -5 3 -10 1 -10 -5 0 -6 -8 -14 -17
-17 -10 -4 -24 -14 -31 -22 -11 -13 -12 -13 -7 -1 5 12 4 12 -7 -1 -7 -8 -21
-18 -31 -22 -10 -4 -16 -11 -12 -16 3 -6 -3 -8 -14 -6 -11 2 -27 -5 -36 -16
-10 -10 -22 -16 -26 -13 -5 3 -9 0 -9 -5 0 -6 -7 -11 -16 -11 -9 0 -12 -5 -8
-12 4 -6 3 -8 -4 -4 -6 3 -26 -2 -45 -13 -19 -11 -38 -17 -41 -14 -3 4 -6 1
-6 -5 0 -7 -9 -12 -21 -12 -13 0 -18 -4 -13 -12 4 -7 3 -8 -4 -4 -7 4 -18 4
-24 -1 -7 -4 -17 -8 -23 -9 -5 -1 -29 -9 -52 -18 -24 -8 -43 -13 -43 -9 0 3
-6 1 -13 -5 -7 -6 -24 -13 -37 -16 -14 -3 -36 -8 -50 -11 -25 -6 -45 -11 -90
-20 -14 -3 -43 -8 -65 -10 -60 -8 -69 -10 -84 -19 -10 -7 -12 -5 -6 4 6 9 2
10 -16 4 -50 -16 -386 -1 -405 19 -3 3 -6 164 -7 359 -1 221 -6 356 -12 360
-6 5 -6 8 1 8 13 0 13 198 0 219 -6 9 -5 12 0 8 13 -7 12 683 0 702 -6 9 -5
12 1 8 13 -8 12 956 -2 965 -6 5 -6 8 2 8 6 0 9 9 6 20 -3 11 -10 17 -15 14
-6 -4 -5 3 1 15 8 15 9 21 1 21 -6 0 -9 4 -5 9 3 5 1 12 -5 16 -6 4 -8 11 -5
16 4 5 0 9 -7 9 -9 0 -9 3 2 10 12 8 11 10 -7 10 -16 0 -23 6 -23 20 0 11 -5
20 -11 20 -5 0 -7 5 -3 12 5 8 2 9 -9 5 -11 -4 -17 -1 -17 9 0 8 -4 12 -10 9
-5 -3 -10 -1 -10 5 0 7 -7 9 -16 6 -10 -4 -13 -2 -8 6 5 8 2 9 -10 5 -9 -4
-14 -3 -11 2 3 5 1 12 -5 16 -5 3 -10 0 -10 -7 0 -10 -2 -10 -9 1 -6 10 -10
10 -16 1 -5 -8 -12 -7 -25 5 -14 12 -20 13 -26 4 -5 -8 -3 -10 6 -4 9 6 11 4
6 -4 -6 -9 -13 -8 -29 6 -11 10 -17 12 -13 6 7 -13 6 -14 -31 -18 -13 -1 -29
-8 -37 -14 -8 -7 -21 -9 -28 -5 -9 6 -9 3 1 -9 12 -15 12 -17 -3 -11 -11 4
-16 1 -16 -12 0 -16 -2 -17 -10 -4 -8 12 -10 11 -10 -6 0 -12 -7 -24 -15 -28
-8 -3 -15 -15 -15 -26 0 -14 -4 -19 -12 -14 -8 5 -9 2 -5 -9 4 -10 1 -17 -6
-17 -8 0 -6 -4 3 -10 10 -6 11 -10 3 -10 -7 0 -12 -3 -12 -7 4 -26 -2 -43 -13
-37 -10 6 -10 5 -1 -7 14 -17 14 -21 3 -59 -6 -21 -5 -30 3 -30 8 0 8 -3 2 -8
-12 -8 -12 -52 -1 -70 4 -6 3 -12 -2 -12 -10 0 -9 -30 1 -47 4 -6 3 -15 -3
-18 -6 -4 -7 -12 -3 -18 10 -15 10 -38 -1 -56 -5 -8 -3 -16 5 -22 8 -5 9 -9 4
-9 -6 0 -11 -9 -11 -20 0 -11 4 -20 9 -20 5 0 4 -7 -3 -15 -10 -12 -10 -15 0
-15 10 0 10 -3 0 -15 -10 -12 -10 -18 0 -30 7 -8 8 -15 3 -15 -5 0 -10 -7 -10
-15 0 -8 4 -15 8 -15 5 0 5 -11 0 -23 -5 -13 -5 -30 -1 -37 5 -8 4 -22 -1 -32
-7 -13 -6 -18 3 -18 10 0 10 -2 1 -8 -8 -5 -9 -13 -3 -22 5 -8 5 -21 -1 -31
-6 -12 -5 -20 1 -24 7 -4 8 -11 1 -18 -14 -18 -14 -29 1 -38 8 -6 9 -12 3 -16
-15 -12 -17 -43 -3 -43 8 0 9 -3 3 -8 -6 -4 -11 -16 -11 -27 0 -11 5 -23 11
-27 7 -5 7 -11 0 -15 -15 -12 -17 -34 -4 -49 6 -8 7 -14 2 -14 -5 0 -10 -7
-10 -15 0 -8 4 -15 8 -15 5 0 4 -11 -1 -24 -5 -15 -5 -27 3 -35 6 -6 7 -11 2
-11 -11 0 -12 -51 -1 -68 4 -7 3 -12 -1 -12 -5 0 -9 -9 -9 -20 0 -11 5 -20 11
-20 6 0 7 -3 0 -8 -12 -8 -16 -42 -6 -42 4 0 7 -10 5 -22 -1 -13 -3 -23 -4
-23 -1 0 -3 -10 -4 -22 -2 -13 2 -23 7 -23 5 0 4 -7 -3 -15 -10 -12 -10 -15 0
-15 10 0 10 -3 0 -15 -10 -12 -10 -15 0 -15 8 0 9 -4 3 -12 -11 -15 -11 -28 0
-45 5 -8 3 -13 -4 -13 -9 0 -9 -3 0 -14 9 -11 9 -16 0 -21 -8 -6 -7 -10 2 -16
12 -7 12 -9 0 -9 -11 0 -11 -3 -1 -15 7 -9 8 -15 2 -15 -12 0 -10 -33 3 -42 6
-5 5 -8 -4 -8 -11 0 -11 -3 -1 -15 7 -8 8 -15 3 -15 -11 0 -11 -29 1 -48 4 -7
2 -12 -5 -12 -10 0 -10 -3 -2 -11 8 -8 8 -20 3 -35 -6 -15 -5 -24 3 -28 8 -3
8 -5 1 -5 -12 -1 -10 -54 2 -73 5 -7 2 -8 -7 -3 -11 6 -11 5 -2 -5 9 -9 9 -19
2 -32 -7 -13 -7 -23 1 -33 8 -9 8 -15 0 -20 -8 -5 -8 -10 0 -20 8 -10 8 -15
-1 -20 -8 -6 -7 -10 2 -16 12 -7 12 -9 0 -9 -11 0 -11 -3 -1 -15 7 -9 8 -15 2
-15 -12 0 -10 -33 3 -42 6 -5 5 -8 -4 -8 -11 0 -11 -3 -1 -15 7 -8 9 -15 4
-15 -5 0 -9 -11 -9 -25 0 -14 5 -25 10 -25 7 0 7 -3 0 -8 -13 -9 -14 -72 -2
-72 5 0 5 -6 -2 -13 -8 -10 -7 -17 1 -25 7 -7 8 -12 2 -12 -6 0 -11 -7 -11
-15 0 -8 5 -15 11 -15 7 0 7 -3 1 -8 -13 -9 -14 -72 -2 -72 5 0 3 -8 -4 -17
-12 -14 -12 -15 -1 -9 11 7 12 4 4 -10 -15 -28 -15 -36 0 -45 8 -5 8 -9 2 -9
-11 0 -10 -52 1 -70 3 -5 0 -12 -6 -16 -8 -4 -7 -9 2 -15 9 -6 10 -9 2 -9 -9
0 -11 -19 -3 -40 1 -3 2 -9 1 -13 -7 -41 -7 -67 2 -67 5 0 4 -7 -3 -15 -7 -9
-8 -15 -2 -15 12 0 10 -33 -3 -42 -6 -5 -5 -8 3 -8 9 0 10 -5 4 -17 -7 -12 -5
-24 5 -40 12 -19 13 -23 2 -23 -11 0 -11 -2 1 -10 8 -5 11 -10 6 -10 -5 0 -4
-6 1 -12 6 -7 9 -21 8 -30 -2 -10 2 -21 7 -25 7 -4 8 -1 4 8 -4 8 -1 6 8 -4 8
-11 12 -26 9 -35 -4 -10 -2 -13 5 -8 7 4 16 -3 24 -18 9 -22 14 -24 26 -13 13
9 14 9 8 0 -4 -8 -2 -13 4 -13 6 0 8 -5 4 -12 -5 -8 -2 -8 10 1 9 8 16 10 15
5 -5 -26 1 -36 15 -25 11 9 15 8 20 -4 3 -9 10 -14 15 -10 5 3 12 1 16 -5 3
-5 17 -10 31 -10 13 0 24 -4 24 -10 0 -5 6 -7 14 -4 8 3 16 1 19 -3 3 -5 20
-8 36 -7 17 1 31 -1 31 -5 0 -4 12 -8 28 -9 15 -1 43 -5 62 -8 19 -3 46 -5 59
-5 14 1 28 -5 33 -11 6 -10 8 -10 8 1 0 11 3 11 15 1 12 -10 15 -10 15 0 0 10
3 10 15 0 12 -10 15 -10 15 1 0 9 3 10 8 4 8 -12 222 -14 222 -3 0 5 5 8 11 8
5 0 8 -4 5 -9 -3 -5 5 -8 19 -7 14 0 25 3 25 6 0 3 19 5 43 4 23 0 48 4 56 10
12 9 13 8 6 -3 -6 -11 -4 -13 11 -7 16 7 60 14 112 18 6 1 12 4 12 7 0 3 19 7
41 8 23 2 47 7 54 13 7 6 17 10 21 9 29 -5 54 2 48 14 -6 9 -4 9 8 -1 12 -9
18 -10 23 -2 4 6 13 9 20 6 7 -2 16 2 19 10 3 9 10 12 16 9 6 -4 24 0 40 9 19
9 28 10 23 3 -4 -7 0 -6 10 2 9 7 17 10 17 5 0 -5 6 -2 13 6 7 9 21 15 32 15
11 0 27 6 37 13 14 12 34 19 61 21 5 1 5 5 2 11 -3 6 1 10 10 10 10 0 14 -5
10 -12 -4 -7 0 -5 8 4 8 10 17 15 20 11 4 -3 7 -1 7 6 0 8 6 11 16 7 8 -3 12
-2 9 4 -3 6 3 10 14 10 12 0 21 4 21 9 0 5 11 12 25 15 14 4 25 11 25 17 0 6
5 7 11 4 6 -4 17 1 25 11 9 11 12 12 8 4 -7 -13 -5 -13 9 -1 9 7 15 17 12 21
-3 5 3 7 12 6 19 -3 43 15 36 27 -2 4 1 7 6 7 6 0 11 -6 11 -12 0 -7 7 -2 16
10 8 12 20 19 26 16 7 -5 9 -1 5 9 -3 9 -3 16 1 16 20 -3 33 2 27 11 -3 6 1 7
9 4 10 -4 16 -1 16 7 0 7 3 10 6 6 3 -3 18 7 33 22 15 15 33 25 40 23 8 -3 11
0 7 7 -4 6 1 14 11 18 10 3 32 22 50 40 19 21 37 32 44 27 7 -4 9 -3 5 4 -3 6
3 13 14 17 11 3 20 12 20 20 0 7 7 16 16 19 8 3 12 11 9 16 -4 6 -1 9 7 8 7
-2 12 3 10 10 -1 8 2 11 8 7 5 -3 10 -1 10 5 0 6 5 8 10 5 6 -3 10 -1 10 5 0
6 12 22 26 35 15 14 24 25 20 25 -4 0 12 19 36 42 24 23 37 38 29 33 -10 -5
-12 -4 -7 3 4 7 13 12 21 12 8 0 17 5 21 12 5 7 2 9 -7 4 -8 -4 -5 0 5 8 11 9
17 16 13 16 -4 0 6 14 24 31 17 17 29 33 26 36 -3 3 5 17 19 31 13 15 24 32
24 39 0 7 5 13 10 13 6 0 16 12 22 28 7 15 18 35 26 45 9 9 11 17 7 17 -5 0
-1 6 9 13 10 7 19 25 19 39 1 14 5 24 9 22 4 -3 15 13 25 33 18 37 19 42 22
64 0 5 5 7 11 4 5 -3 7 0 4 8 -3 8 -1 18 5 22 6 3 11 15 11 26 0 13 4 18 12
13 7 -4 8 -3 4 5 -4 6 -2 18 4 26 6 8 9 19 5 25 -3 5 -2 10 3 10 8 0 13 11 27
63 2 4 4 10 5 15 1 4 2 10 1 15 0 4 4 7 10 7 6 0 9 7 6 15 -4 8 -2 17 2 20 9
5 26 73 23 88 -1 4 3 7 9 7 8 0 8 5 -1 15 -9 11 -9 15 -1 15 7 0 9 5 6 10 -3
6 -1 10 4 10 6 0 11 5 11 11 0 5 -6 7 -12 3 -8 -5 -8 -2 1 10 8 9 16 31 18 48
2 17 6 43 9 57 10 49 15 96 17 153 1 32 5 58 9 58 6 0 6 8 -2 45 -1 6 -1 12 0
15 6 16 5 158 -2 172 -5 10 -4 19 2 23 8 5 7 12 -2 23 -10 12 -10 14 0 8 6 -4
12 -2 12 3 0 6 -4 11 -10 11 -6 0 -6 9 0 24 5 13 6 26 3 29 -4 5 -11 54 -16
129 -1 16 -5 28 -9 28 -3 0 -5 8 -3 18 1 9 -3 23 -9 31 -9 12 -8 13 4 6 13 -7
13 -6 2 7 -7 9 -12 20 -11 24 1 5 0 11 -1 14 -2 4 -7 39 -12 78 -1 6 -5 12
-10 12 -5 0 -8 6 -6 13 4 23 -24 117 -35 117 -7 0 -5 5 3 10 8 5 10 10 4 10
-7 0 -15 7 -18 16 -3 8 -2 12 4 9 6 -3 7 1 4 9 -3 9 -10 16 -16 16 -5 0 -6 5
-3 10 3 6 1 10 -6 10 -7 0 -9 3 -6 7 4 3 -1 15 -10 26 -10 11 -12 17 -5 13 6
-4 12 -2 12 3 0 6 -5 11 -11 11 -6 0 -8 7 -5 15 3 9 -1 18 -9 21 -7 3 -11 12
-8 20 3 8 0 14 -6 14 -6 0 -11 9 -11 21 0 12 -4 17 -11 14 -6 -4 -9 -1 -8 6 2
8 -5 29 -14 46 -10 18 -18 36 -20 40 -1 5 -6 7 -10 5 -5 -1 -6 2 -3 7 4 5 2
12 -4 16 -5 3 -10 15 -10 26 0 11 -4 18 -9 14 -5 -3 -12 -1 -16 5 -3 5 0 10 7
10 7 0 2 10 -12 23 -14 12 -19 18 -11 12 10 -6 8 0 -4 16 -11 15 -24 24 -29
21 -5 -3 -6 -1 -3 5 8 12 -27 65 -37 56 -4 -4 -4 0 -1 9 4 9 0 18 -9 21 -9 4
-16 13 -16 22 0 8 -7 15 -16 15 -8 0 -13 4 -9 9 3 6 -3 18 -13 28 -10 10 -22
26 -25 36 -4 11 -12 15 -19 11 -8 -5 -9 -2 -5 9 3 9 3 16 -1 14 -4 -1 -8 1
-10 5 -1 4 -25 31 -52 59 -28 29 -50 55 -50 59 0 4 -11 12 -25 18 -14 6 -25
18 -25 26 0 10 -6 13 -17 9 -9 -4 -14 -2 -10 4 7 11 -28 45 -37 36 -3 -4 -6 1
-6 11 0 9 -7 19 -16 23 -9 3 -27 15 -39 27 -13 12 -35 31 -48 43 -14 12 -28
19 -31 16 -3 -4 -6 -1 -6 5 0 7 -7 12 -16 12 -8 0 -12 5 -9 10 6 9 -8 14 -27
11 -5 0 -8 3 -8 8 0 15 -90 72 -102 65 -7 -4 -8 -2 -4 4 6 11 1 14 -20 11 -3
0 -14 9 -23 20 -10 11 -21 18 -25 14 -3 -3 -6 -1 -6 6 0 7 -4 10 -9 6 -6 -3
-20 5 -32 17 -12 13 -19 17 -15 11 11 -20 -1 -15 -24 9 -14 15 -20 18 -20 7
-1 -10 -3 -9 -11 4 -5 9 -19 17 -29 17 -11 0 -20 4 -20 9 0 5 -7 12 -16 15 -9
3 -12 2 -8 -5 3 -6 -3 -5 -15 3 -12 7 -21 16 -21 21 0 4 -4 5 -10 2 -5 -3 -22
1 -38 9 -16 8 -32 12 -36 9 -3 -4 -6 -1 -6 5 0 7 -9 12 -20 12 -11 0 -20 5
-20 11 0 8 -5 8 -15 -1 -10 -9 -15 -9 -15 -1 0 6 -7 11 -15 11 -8 0 -15 4 -15
10 0 5 -7 7 -15 4 -8 -4 -22 -1 -30 6 -8 7 -15 9 -15 5 0 -4 -6 -2 -14 4 -8 6
-18 11 -22 10 -5 -1 -12 0 -16 1 -5 1 -12 4 -18 5 -5 1 -11 3 -12 5 -4 2 -19
6 -133 30 -83 18 -141 22 -345 25 -135 2 -261 1 -280 -1z m3070 -2764 c0 -5
-2 -10 -4 -10 -3 0 -8 5 -11 10 -3 6 -1 10 4 10 6 0 11 -4 11 -10z"/>
<path d="M1274 3486 c-3 -8 -4 -25 -2 -38 l3 -23 4535 0 4535 0 0 35 0 35
-4533 3 c-3920 2 -4533 0 -4538 -12z"/>
<path d="M6350 3262 c0 -22 3 -23 48 -21 l47 3 3 -227 2 -227 25 0 25 0 -2
247 -3 248 -72 0 c-70 1 -73 0 -73 -23z"/>
<path d="M7150 3252 c-1 -203 -8 -430 -15 -444 -6 -15 -2 -18 19 -18 16 0 26
6 26 15 0 19 -2 19 43 -4 92 -47 183 22 194 147 13 136 -74 233 -182 203 l-35
-9 -1 36 c-1 20 0 52 1 70 1 17 -2 32 -7 33 -4 0 -16 2 -25 4 -15 3 -18 -4
-18 -33z m177 -161 c25 -19 33 -39 40 -104 9 -90 -35 -161 -97 -155 -55 5 -72
40 -72 144 0 49 1 94 1 101 2 20 53 42 81 36 14 -4 35 -13 47 -22z"/>
<path d="M1554 3271 c-2 -2 -4 -111 -4 -241 l0 -237 78 -1 c102 0 139 17 171
81 30 60 37 184 16 273 -17 72 -65 124 -117 125 -18 0 -57 1 -86 2 -30 1 -56
0 -58 -2z m161 -51 c42 -16 59 -69 59 -190 0 -81 -4 -113 -18 -142 -20 -41
-33 -48 -106 -52 l-50 -3 0 198 0 199 44 0 c25 0 56 -4 71 -10z"/>
<path d="M3214 3270 c-56 -22 -83 -119 -48 -169 9 -13 53 -47 98 -76 93 -59
103 -70 101 -105 -2 -45 -15 -68 -49 -84 -41 -19 -92 -8 -126 29 -22 24 -24
24 -42 8 -18 -16 -18 -18 14 -45 32 -27 84 -48 120 -48 38 0 95 32 113 63 25
42 25 119 0 146 -10 12 -41 35 -69 53 -103 65 -126 87 -126 123 0 24 7 39 26
54 36 28 71 26 117 -5 21 -14 39 -24 41 -22 1 1 7 11 14 20 12 14 8 20 -31 42
-45 27 -110 34 -153 16z"/>
<path d="M4052 3268 c-27 -27 -6 -68 35 -68 28 0 43 28 32 58 -9 24 -47 30
-67 10z"/>
<path d="M7620 3269 c-73 -30 -137 -137 -147 -241 -12 -139 50 -228 168 -243
48 -6 142 17 176 43 19 15 20 20 9 34 -12 17 -15 17 -53 -2 -64 -31 -116 -35
-169 -15 -39 15 -50 25 -66 62 -39 88 -7 226 66 291 83 73 207 17 220 -99 5
-49 -12 -112 -36 -132 -42 -36 -56 20 -29 118 11 42 0 53 -48 49 -61 -5 -89
-23 -114 -75 -50 -99 3 -180 87 -132 14 7 26 6 47 -4 106 -53 189 135 116 260
-38 64 -76 88 -145 93 -31 2 -68 -1 -82 -7z m84 -216 c-14 -79 -56 -125 -73
-81 -14 40 29 117 67 118 9 0 11 -10 6 -37z"/>
<path d="M10043 3261 c-19 -30 14 -66 50 -57 27 6 34 26 21 60 -9 23 -57 20
-71 -3z"/>
<path d="M2407 3253 c-2 -5 -3 -29 -2 -55 l1 -48 -38 0 c-31 0 -38 -4 -38 -20
0 -11 6 -20 13 -21 6 -1 23 -2 37 -2 25 -2 25 -3 26 -104 2 -158 3 -160 27
-188 21 -24 41 -30 94 -26 22 1 93 63 93 80 0 13 -45 22 -49 9 -8 -24 -43 -48
-70 -48 -40 0 -45 19 -45 163 l-1 118 40 -1 c71 -3 83 -1 88 20 4 17 -1 19
-62 22 l-66 3 1 53 c1 48 0 52 -22 52 -12 0 -25 -3 -27 -7z"/>
<path d="M2013 3148 c-42 -9 -51 -20 -35 -45 6 -9 18 -9 52 3 66 23 99 -1 100
-73 0 -20 -3 -20 -35 -10 -91 28 -168 -50 -149 -151 7 -34 45 -81 67 -83 7 0
20 -2 29 -4 10 -2 34 5 55 16 28 14 39 16 45 6 4 -6 8 -14 8 -17 0 -3 8 -6 18
-6 17 0 18 10 14 136 -4 160 -13 195 -56 221 -34 21 -49 22 -113 7z m105 -172
c7 -4 12 -26 12 -50 0 -83 -96 -131 -128 -63 -16 33 -8 81 18 107 18 18 74 21
98 6z"/>
<path d="M2810 3148 c-43 -12 -43 -12 -35 -37 5 -17 10 -19 31 -11 77 30 113
15 121 -49 l6 -42 -27 11 c-70 26 -137 -8 -156 -81 -30 -112 66 -193 159 -132
20 13 25 13 32 2 5 -8 9 -17 9 -20 0 -3 11 -4 24 -2 22 5 24 8 15 30 -5 13 -9
74 -9 134 0 126 -13 170 -59 193 -34 18 -60 19 -111 4z m111 -174 c5 -3 9 -24
9 -48 0 -34 -6 -48 -29 -70 -55 -53 -123 -12 -106 65 11 48 37 68 81 63 20 -2
41 -7 45 -10z"/>
<path d="M3633 3145 c-63 -27 -93 -92 -89 -192 2 -54 8 -78 25 -102 49 -68
140 -84 211 -37 44 29 48 37 25 56 -11 9 -21 7 -48 -14 -89 -68 -177 6 -164
139 6 65 30 102 71 113 38 11 74 -1 101 -33 18 -22 22 -23 39 -10 19 15 19 16
-9 45 -42 44 -107 58 -162 35z"/>
<path d="M4420 3142 c-101 -50 -122 -239 -35 -319 35 -33 48 -37 118 -34 41 1
107 25 107 38 0 4 -4 14 -9 22 -8 12 -14 12 -44 -2 -75 -36 -143 -16 -167 49
-22 56 -16 62 58 63 37 0 90 0 119 0 l52 1 -4 45 c-7 86 -68 155 -137 155 -12
0 -39 -8 -58 -18z m90 -37 c26 -13 60 -68 60 -96 0 -5 -43 -9 -96 -9 -94 0
-95 0 -89 23 13 45 31 70 60 83 37 16 31 17 65 -1z"/>
<path d="M4864 3146 c-17 -8 -41 -24 -53 -37 -11 -12 -22 -17 -22 -11 -1 7 -3
17 -4 22 -1 6 -3 15 -4 20 0 6 -13 10 -27 10 -21 0 -25 -3 -19 -17 4 -10 9
-90 11 -178 3 -159 3 -160 26 -160 22 0 23 3 25 104 3 125 26 187 80 208 29
12 35 11 52 -6 15 -15 19 -34 19 -97 1 -226 0 -216 25 -212 22 3 22 6 23 138
1 137 -6 184 -29 207 -20 20 -69 24 -103 9z"/>
<path d="M5215 3136 c-91 -52 -105 -240 -24 -312 54 -48 130 -50 190 -5 32 23
35 29 24 44 -16 22 -21 22 -53 -8 -49 -46 -122 -28 -150 38 -17 39 -15 132 3
167 18 35 64 61 96 55 12 -3 37 -18 54 -35 31 -30 32 -30 49 -12 16 18 15 21
-18 50 -52 46 -111 52 -171 18z"/>
<path d="M5625 3146 c-60 -26 -94 -91 -95 -181 0 -60 31 -129 72 -158 32 -24
95 -26 162 -6 47 14 53 22 36 49 -8 12 -14 12 -45 -3 -55 -26 -111 -22 -140 9
-14 15 -26 32 -26 38 -1 6 -3 23 -5 38 l-3 27 67 0 c37 -1 90 -1 119 0 l52 1
-4 44 c-6 71 -41 126 -94 144 -43 15 -58 15 -96 -2z m83 -40 c27 -14 45 -40
57 -83 6 -23 5 -23 -90 -23 -95 0 -96 0 -90 23 13 45 31 70 60 83 37 16 31 16
63 0z"/>
<path d="M6803 3147 c-21 -6 -33 -16 -33 -27 0 -26 9 -29 48 -16 21 7 46 12
57 10 28 -4 55 -41 55 -74 0 -27 -1 -27 -38 -17 -21 6 -50 7 -65 3 -100 -25
-118 -191 -24 -231 35 -15 71 -11 104 11 28 18 30 18 36 -5 3 -14 11 -18 26
-14 18 5 20 11 16 37 -4 17 -7 83 -9 146 -2 127 -10 150 -62 175 -34 16 -60
16 -111 2z m97 -166 c22 -6 25 -13 26 -51 2 -55 -34 -100 -77 -100 -59 0 -81
91 -33 135 28 26 41 28 84 16z"/>
<path d="M8433 3153 c-77 -16 -123 -146 -92 -258 36 -132 196 -149 255 -28 24
50 22 160 -3 210 -30 61 -92 91 -160 76z m78 -47 c61 -25 71 -221 12 -263 -23
-18 -74 -16 -100 2 -41 28 -56 144 -29 209 23 56 62 73 117 52z"/>
<path d="M8848 3137 c-18 -11 -38 -27 -44 -35 -10 -13 -13 -11 -19 16 -5 26
-12 32 -31 32 -17 0 -23 -4 -18 -12 4 -6 9 -86 10 -177 3 -165 3 -166 26 -166
22 0 23 3 25 100 1 63 8 114 18 142 26 68 91 100 121 59 6 -9 11 -64 12 -133
0 -65 1 -130 1 -145 1 -23 5 -27 25 -26 l25 2 -2 151 c-2 125 -6 156 -20 178
-10 15 -23 28 -30 29 -48 6 -71 3 -99 -15z"/>
<path d="M9216 3145 c-39 -21 -55 -44 -56 -80 0 -45 26 -74 89 -102 69 -31 91
-49 91 -79 0 -56 -71 -72 -134 -29 -43 29 -52 31 -60 9 -8 -21 -1 -31 37 -51
104 -53 207 -18 207 72 0 44 -30 78 -92 105 -66 28 -88 47 -88 76 0 35 38 56
79 44 18 -5 39 -14 47 -21 11 -9 18 -9 29 1 22 18 19 28 -14 44 -46 24 -102
29 -135 11z"/>
<path d="M9633 3149 c-118 -35 -139 -264 -31 -343 33 -24 117 -25 172 -2 38
16 41 22 26 46 -8 12 -14 12 -45 -3 -55 -26 -111 -22 -140 9 -14 15 -26 32
-26 38 -1 6 -3 23 -5 38 l-3 27 67 0 c37 -1 90 -1 119 0 l52 1 -4 44 c-9 110
-88 173 -182 145z m80 -44 c17 -7 57 -73 57 -95 0 -6 -36 -10 -95 -10 l-95 0
6 28 c19 73 67 103 127 77z"/>
<path d="M3962 3128 c3 -19 9 -22 51 -21 l47 1 0 -159 0 -159 25 0 25 0 0 180
0 180 -76 0 c-72 0 -75 -1 -72 -22z"/>
<path d="M7940 3144 c0 -3 25 -74 55 -155 l55 -149 -21 -51 c-27 -61 -51 -77
-78 -50 -10 10 -20 24 -23 31 -3 10 -9 10 -25 1 -21 -11 -21 -12 -5 -41 9 -16
29 -35 44 -41 38 -16 96 14 120 61 16 33 158 388 158 397 0 3 -12 3 -26 1 -24
-3 -31 -15 -72 -122 l-46 -118 -42 118 c-38 108 -44 119 -68 122 -14 2 -26 0
-26 -4z"/>
<path d="M9962 3128 c3 -20 9 -23 48 -23 l45 0 2 -150 c1 -82 2 -153 2 -157 1
-5 12 -8 26 -8 l25 0 0 180 0 180 -76 0 c-72 0 -75 -1 -72 -22z"/>
<path d="M6053 2880 c-12 -5 -25 -21 -29 -36 -13 -53 58 -81 94 -36 17 22 15
35 -8 60 -23 24 -25 25 -57 12z"/>
</g>
</svg>
